# xmcd
# Track frame offsets:
# 150
# 56826
# 93358
# 131889
# 217179
# 248469
#
# Disc length: 3773 seconds
# Revision: 0
# Processed by: cddbd v1.4PL0 Copyright (c) Steve Scherf et al.
# Submitted via: VisiTrax 2.9.5.181 - For more info visit www.synapsa.com
#
DISCID=560ebb06
DTITLE=Johnny Winter - Live in Germany april 22 1979
DYEAR=1979
DGENRE=Blues/Rock
TTITLE0=Hideway
TTITLE1=Messin with the kid
TTITLE2=Walking by my self
TTITLE3=Mississippi delta blues
TTITLE4=Divin´duck blues
TTITLE5=Johnny B Good
EXTD=
EXTT0=
EXTT1=
EXTT2=
EXTT3=
EXTT4=
EXTT5=
PLAYORDER=
